<svg xmlns="http://www.w3.org/2000/svg" xmlns:xlink="http://www.w3.org/1999/xlink" width="500" zoomAndPan="magnify" viewBox="0 0 375 374.999991" height="500" preserveAspectRatio="xMidYMid meet" version="1.0"><defs><filter x="0%" y="0%" width="100%" height="100%" id="4f8389aca0"><feColorMatrix values="0 0 0 0 1 0 0 0 0 1 0 0 0 0 1 0 0 0 1 0" color-interpolation-filters="sRGB"/></filter><clipPath id="fb0da8c41c"><path d="M 100.6875 22.511719 L 268.640625 22.511719 L 268.640625 42.851562 L 100.6875 42.851562 Z M 100.6875 22.511719 " clip-rule="nonzero"/></clipPath><clipPath id="655f73d884"><path d="M 110.855469 22.511719 L 258.449219 22.511719 C 264.0625 22.511719 268.617188 27.0625 268.617188 32.679688 C 268.617188 38.296875 264.0625 42.851562 258.449219 42.851562 L 110.855469 42.851562 C 105.242188 42.851562 100.6875 38.296875 100.6875 32.679688 C 100.6875 27.0625 105.242188 22.511719 110.855469 22.511719 Z M 110.855469 22.511719 " clip-rule="nonzero"/></clipPath><clipPath id="0d4b3e161b"><path d="M 100.707031 22.511719 L 268.585938 22.511719 L 268.585938 42.761719 L 100.707031 42.761719 Z M 100.707031 22.511719 " clip-rule="nonzero"/></clipPath><clipPath id="cd1d0c82cd"><path d="M 110.875 22.511719 L 258.417969 22.511719 C 264.035156 22.511719 268.585938 27.0625 268.585938 32.675781 C 268.585938 38.292969 264.035156 42.84375 258.417969 42.84375 L 110.875 42.84375 C 105.261719 42.84375 100.707031 38.292969 100.707031 32.675781 C 100.707031 27.0625 105.261719 22.511719 110.875 22.511719 Z M 110.875 22.511719 " clip-rule="nonzero"/></clipPath><clipPath id="db34fd07bb"><path d="M 79.535156 40.53125 L 295.464844 40.53125 L 295.464844 352.621094 L 79.535156 352.621094 Z M 79.535156 40.53125 " clip-rule="nonzero"/></clipPath><clipPath id="f44fbdc2e9"><path d="M 96.785156 40.53125 L 278.214844 40.53125 C 282.792969 40.53125 287.179688 42.347656 290.414062 45.582031 C 293.648438 48.816406 295.464844 53.203125 295.464844 57.78125 L 295.464844 335.238281 C 295.464844 339.8125 293.648438 344.203125 290.414062 347.4375 C 287.179688 350.671875 282.792969 352.488281 278.214844 352.488281 L 96.785156 352.488281 C 92.207031 352.488281 87.820312 350.671875 84.585938 347.4375 C 81.351562 344.203125 79.535156 339.8125 79.535156 335.238281 L 79.535156 57.78125 C 79.535156 53.203125 81.351562 48.816406 84.585938 45.582031 C 87.820312 42.347656 92.207031 40.53125 96.785156 40.53125 Z M 96.785156 40.53125 " clip-rule="nonzero"/></clipPath><clipPath id="53281c1a2f"><path d="M 79.535156 40.53125 L 295.535156 40.53125 L 295.535156 352.53125 L 79.535156 352.53125 Z M 79.535156 40.53125 " clip-rule="nonzero"/></clipPath><clipPath id="cf7a4bfe3a"><path d="M 96.78125 40.53125 L 278.214844 40.53125 C 282.789062 40.53125 287.175781 42.347656 290.410156 45.582031 C 293.644531 48.816406 295.460938 53.203125 295.460938 57.78125 L 295.460938 335.234375 C 295.460938 339.808594 293.644531 344.195312 290.410156 347.429688 C 287.175781 350.664062 282.789062 352.484375 278.214844 352.484375 L 96.78125 352.484375 C 92.207031 352.484375 87.820312 350.664062 84.585938 347.429688 C 81.351562 344.195312 79.535156 339.808594 79.535156 335.234375 L 79.535156 57.78125 C 79.535156 53.203125 81.351562 48.816406 84.585938 45.582031 C 87.820312 42.347656 92.207031 40.53125 96.78125 40.53125 Z M 96.78125 40.53125 " clip-rule="nonzero"/></clipPath><clipPath id="ddadc453a1"><path d="M 125.109375 26.382812 L 194.023438 26.382812 L 194.023438 39.410156 L 125.109375 39.410156 Z M 125.109375 26.382812 " clip-rule="nonzero"/></clipPath><clipPath id="e211d188b9"><path d="M 131.625 26.382812 L 187.496094 26.382812 C 191.09375 26.382812 194.007812 29.296875 194.007812 32.894531 C 194.007812 36.492188 191.09375 39.410156 187.496094 39.410156 L 131.625 39.410156 C 128.027344 39.410156 125.109375 36.492188 125.109375 32.894531 C 125.109375 29.296875 128.027344 26.382812 131.625 26.382812 Z M 131.625 26.382812 " clip-rule="nonzero"/></clipPath><clipPath id="d8b1ab7f73"><path d="M 125.132812 26.382812 L 194 26.382812 L 194 39.132812 L 125.132812 39.132812 Z M 125.132812 26.382812 " clip-rule="nonzero"/></clipPath><clipPath id="6d94187392"><path d="M 131.640625 26.382812 L 187.46875 26.382812 C 191.066406 26.382812 193.980469 29.296875 193.980469 32.890625 C 193.980469 36.484375 191.066406 39.402344 187.46875 39.402344 L 131.640625 39.402344 C 128.046875 39.402344 125.132812 36.484375 125.132812 32.890625 C 125.132812 29.296875 128.046875 26.382812 131.640625 26.382812 Z M 131.640625 26.382812 " clip-rule="nonzero"/></clipPath><clipPath id="92340c2ea8"><path d="M 100.6875 42.851562 L 272.261719 42.851562 L 272.261719 346 L 100.6875 346 Z M 100.6875 42.851562 " clip-rule="nonzero"/></clipPath><clipPath id="918014e40f"><path d="M 117.9375 42.851562 L 255.011719 42.851562 C 259.585938 42.851562 263.972656 44.667969 267.207031 47.902344 C 270.441406 51.136719 272.261719 55.523438 272.261719 60.101562 L 272.261719 328.84375 C 272.261719 333.421875 270.441406 337.808594 267.207031 341.042969 C 263.972656 344.277344 259.585938 346.09375 255.011719 346.09375 L 117.9375 346.09375 C 113.363281 346.09375 108.976562 344.277344 105.738281 341.042969 C 102.503906 337.808594 100.6875 333.421875 100.6875 328.84375 L 100.6875 60.101562 C 100.6875 55.523438 102.503906 51.136719 105.738281 47.902344 C 108.976562 44.667969 113.363281 42.851562 117.9375 42.851562 Z M 117.9375 42.851562 " clip-rule="nonzero"/></clipPath><clipPath id="ecd2a78e8b"><path d="M 100.6875 42.851562 L 272.4375 42.851562 L 272.4375 345.851562 L 100.6875 345.851562 Z M 100.6875 42.851562 " clip-rule="nonzero"/></clipPath><clipPath id="77dc9d673b"><path d="M 117.9375 42.851562 L 255 42.851562 C 259.574219 42.851562 263.964844 44.671875 267.199219 47.90625 C 270.433594 51.140625 272.25 55.527344 272.25 60.101562 L 272.25 328.832031 C 272.25 333.40625 270.433594 337.792969 267.199219 341.027344 C 263.964844 344.265625 259.574219 346.082031 255 346.082031 L 117.9375 346.082031 C 113.363281 346.082031 108.976562 344.265625 105.738281 341.027344 C 102.503906 337.792969 100.6875 333.40625 100.6875 328.832031 L 100.6875 60.101562 C 100.6875 55.527344 102.503906 51.140625 105.738281 47.90625 C 108.976562 44.671875 113.363281 42.851562 117.9375 42.851562 Z M 117.9375 42.851562 " clip-rule="nonzero"/></clipPath><clipPath id="60cf1ae6ea"><path d="M 118.21875 42.851562 L 138.964844 42.851562 L 138.964844 346.171875 L 118.21875 346.171875 Z M 118.21875 42.851562 " clip-rule="nonzero"/></clipPath><clipPath id="668e110464"><path d="M 128.59375 42.851562 C 134.320312 42.851562 138.964844 47.492188 138.964844 53.222656 L 138.964844 335.722656 C 138.964844 341.449219 134.320312 346.09375 128.59375 346.09375 C 122.863281 346.09375 118.21875 341.449219 118.21875 335.722656 L 118.21875 53.222656 C 118.21875 47.492188 122.863281 42.851562 128.59375 42.851562 Z M 128.59375 42.851562 " clip-rule="nonzero"/></clipPath><clipPath id="3458d259f8"><path d="M 118.21875 42.867188 L 139 42.867188 L 139 345.851562 L 118.21875 345.851562 Z M 118.21875 42.867188 " clip-rule="nonzero"/></clipPath><clipPath id="adbba54da0"><path d="M 128.589844 42.867188 C 134.320312 42.867188 138.960938 47.511719 138.960938 53.238281 L 138.960938 335.695312 C 138.960938 341.421875 134.320312 346.066406 128.589844 346.066406 C 122.863281 346.066406 118.21875 341.421875 118.21875 335.695312 L 118.21875 53.238281 C 118.21875 47.511719 122.863281 42.867188 128.589844 42.867188 Z M 128.589844 42.867188 " clip-rule="nonzero"/></clipPath><mask id="037551df91"><g filter="url(#4f8389aca0)"><rect x="-37.5" width="450" fill="#000000" y="-37.499999" height="449.999989" fill-opacity="0.5"/></g></mask><clipPath id="095e2c0506"><path d="M 8.535156 8.273438 L 220.972656 8.273438 L 220.972656 42.367188 L 8.535156 42.367188 Z M 8.535156 8.273438 " clip-rule="nonzero"/></clipPath><clipPath id="188a6b1d37"><path d="M 25.582031 8.273438 L 203.890625 8.273438 C 213.308594 8.273438 220.941406 15.90625 220.941406 25.320312 C 220.941406 34.734375 213.308594 42.367188 203.890625 42.367188 L 25.582031 42.367188 C 16.167969 42.367188 8.535156 34.734375 8.535156 25.320312 C 8.535156 15.90625 16.167969 8.273438 25.582031 8.273438 Z M 25.582031 8.273438 " clip-rule="nonzero"/></clipPath><clipPath id="0eae885ec9"><path d="M 8.554688 8.273438 L 220.785156 8.273438 L 220.785156 42.023438 L 8.554688 42.023438 Z M 8.554688 8.273438 " clip-rule="nonzero"/></clipPath><clipPath id="d1c83364f4"><path d="M 25.597656 8.273438 L 203.871094 8.273438 C 213.285156 8.273438 220.917969 15.902344 220.917969 25.316406 C 220.917969 34.730469 213.285156 42.363281 203.871094 42.363281 L 25.597656 42.363281 C 16.183594 42.363281 8.554688 34.730469 8.554688 25.316406 C 8.554688 15.902344 16.183594 8.273438 25.597656 8.273438 Z M 25.597656 8.273438 " clip-rule="nonzero"/></clipPath><clipPath id="ed08944c6c"><rect x="0" width="229" y="0" height="51"/></clipPath><clipPath id="fbe89f95a5"><path d="M 118.21875 42.851562 L 142.75 42.851562 L 142.75 317.273438 L 118.21875 317.273438 Z M 118.21875 42.851562 " clip-rule="nonzero"/></clipPath><clipPath id="3811159ab6"><path d="M 118.21875 42.859375 L 142.746094 42.859375 L 142.746094 317.257812 L 118.21875 317.257812 Z M 118.21875 42.859375 " clip-rule="nonzero"/></clipPath></defs><g clip-path="url(#fb0da8c41c)"><g clip-path="url(#655f73d884)"><path fill="#d9d9d9" d="M 100.6875 22.511719 L 268.640625 22.511719 L 268.640625 42.851562 L 100.6875 42.851562 Z M 100.6875 22.511719 " fill-opacity="1" fill-rule="nonzero"/></g></g><g clip-path="url(#0d4b3e161b)"><g clip-path="url(#cd1d0c82cd)"><path stroke-linecap="butt" transform="matrix(0.75, 0, 0, 0.75, 100.708666, 22.511379)" fill="none" stroke-linejoin="miter" d="M 13.555113 0.000453531 L 210.279084 0.000453531 C 217.768668 0.000453531 223.836377 6.068162 223.836377 13.552538 C 223.836377 21.042122 217.768668 27.10983 210.279084 27.10983 L 13.555113 27.10983 C 6.070738 27.10983 -0.00217952 21.042122 -0.00217952 13.552538 C -0.00217952 6.068162 6.070738 0.000453531 13.555113 0.000453531 Z M 13.555113 0.000453531 " stroke="#737373" stroke-width="4" stroke-opacity="1" stroke-miterlimit="4"/></g></g><g clip-path="url(#db34fd07bb)"><g clip-path="url(#f44fbdc2e9)"><path fill="#d9d9d9" d="M 79.535156 40.53125 L 295.464844 40.53125 L 295.464844 352.621094 L 79.535156 352.621094 Z M 79.535156 40.53125 " fill-opacity="1" fill-rule="nonzero"/></g></g><g clip-path="url(#53281c1a2f)"><g clip-path="url(#cf7a4bfe3a)"><path stroke-linecap="butt" transform="matrix(0.75, 0, 0, 0.75, 79.533494, 40.529781)" fill="none" stroke-linejoin="miter" d="M 22.99701 0.00195822 L 264.908484 0.00195822 C 271.007443 0.00195822 276.856402 2.423833 281.168902 6.736334 C 285.481402 11.048834 287.903277 16.897793 287.903277 23.00196 L 287.903277 392.939484 C 287.903277 399.038443 285.481402 404.887401 281.168902 409.199902 C 276.856402 413.512402 271.007443 415.939486 264.908484 415.939486 L 22.99701 415.939486 C 16.898051 415.939486 11.049092 413.512402 6.736592 409.199902 C 2.424092 404.887401 0.00221676 399.038443 0.00221676 392.939484 L 0.00221676 23.00196 C 0.00221676 16.897793 2.424092 11.048834 6.736592 6.736334 C 11.049092 2.423833 16.898051 0.00195822 22.99701 0.00195822 Z M 22.99701 0.00195822 " stroke="#737373" stroke-width="4" stroke-opacity="1" stroke-miterlimit="4"/></g></g><g clip-path="url(#ddadc453a1)"><g clip-path="url(#e211d188b9)"><path fill="#ffffff" d="M 125.109375 26.382812 L 194.023438 26.382812 L 194.023438 39.410156 L 125.109375 39.410156 Z M 125.109375 26.382812 " fill-opacity="1" fill-rule="nonzero"/></g></g><g clip-path="url(#d8b1ab7f73)"><g clip-path="url(#6d94187392)"><path stroke-linecap="butt" transform="matrix(0.75, 0, 0, 0.75, 125.132413, 26.380924)" fill="none" stroke-linejoin="miter" d="M 8.677617 0.00251764 L 83.115127 0.00251764 C 87.912002 0.00251764 91.797419 3.887935 91.797419 8.679602 C 91.797419 13.471269 87.912002 17.361895 83.115127 17.361895 L 8.677617 17.361895 C 3.88595 17.361895 0.000532556 13.471269 0.000532556 8.679602 C 0.000532556 3.887935 3.88595 0.00251764 8.677617 0.00251764 Z M 8.677617 0.00251764 " stroke="#ffffff" stroke-width="4" stroke-opacity="1" stroke-miterlimit="4"/></g></g><g clip-path="url(#92340c2ea8)"><g clip-path="url(#918014e40f)"><path fill="#e4e4e4" d="M 100.6875 42.851562 L 272.261719 42.851562 L 272.261719 345.78125 L 100.6875 345.78125 Z M 100.6875 42.851562 " fill-opacity="1" fill-rule="nonzero"/></g></g><g clip-path="url(#ecd2a78e8b)"><g clip-path="url(#77dc9d673b)"><path stroke-linecap="butt" transform="matrix(0.75, 0, 0, 0.75, 100.687695, 42.852938)" fill="none" stroke-linejoin="miter" d="M 22.999742 -0.00183398 L 205.749754 -0.00183398 C 211.848713 -0.00183398 217.70288 2.42525 222.01538 6.73775 C 226.32788 11.05025 228.749755 16.899209 228.749755 22.998168 L 228.749755 381.305483 C 228.749755 387.404441 226.32788 393.2534 222.01538 397.5659 C 217.70288 401.883609 211.848713 404.305484 205.749754 404.305484 L 22.999742 404.305484 C 16.900783 404.305484 11.051824 401.883609 6.734116 397.5659 C 2.421616 393.2534 -0.000259584 387.404441 -0.000259584 381.305483 L -0.000259584 22.998168 C -0.000259584 16.899209 2.421616 11.05025 6.734116 6.73775 C 11.051824 2.42525 16.900783 -0.00183398 22.999742 -0.00183398 Z M 22.999742 -0.00183398 " stroke="#d9d9d9" stroke-width="4" stroke-opacity="1" stroke-miterlimit="4"/></g></g><g clip-path="url(#60cf1ae6ea)"><g clip-path="url(#668e110464)"><path fill="#d9d9d9" d="M 118.21875 42.851562 L 138.964844 42.851562 L 138.964844 346.089844 L 118.21875 346.089844 Z M 118.21875 42.851562 " fill-opacity="1" fill-rule="nonzero"/></g></g><g clip-path="url(#3458d259f8)"><g clip-path="url(#adbba54da0)"><path stroke-linecap="butt" transform="matrix(0.75, 0, 0, 0.75, 118.219523, 42.868701)" fill="none" stroke-linejoin="miter" d="M 13.827096 -0.00201825 C 21.467722 -0.00201825 27.655223 6.190691 27.655223 13.826109 L 27.655223 390.435532 C 27.655223 398.07095 21.467722 404.263659 13.827096 404.263659 C 6.191678 404.263659 -0.00103085 398.07095 -0.00103085 390.435532 L -0.00103085 13.826109 C -0.00103085 6.190691 6.191678 -0.00201825 13.827096 -0.00201825 Z M 13.827096 -0.00201825 " stroke="#d9d9d9" stroke-width="4" stroke-opacity="1" stroke-miterlimit="4"/></g></g><g mask="url(#037551df91)"><g transform="matrix(1, 0, 0, 1, 71, 309)"><g clip-path="url(#ed08944c6c)"><g clip-path="url(#095e2c0506)"><g clip-path="url(#188a6b1d37)"><path fill="#737373" d="M 8.535156 8.273438 L 220.972656 8.273438 L 220.972656 42.367188 L 8.535156 42.367188 Z M 8.535156 8.273438 " fill-opacity="1" fill-rule="nonzero"/></g></g><g clip-path="url(#0eae885ec9)"><g clip-path="url(#d1c83364f4)"><path stroke-linecap="butt" transform="matrix(0.75, 0, 0, 0.75, 8.552902, 8.272215)" fill="none" stroke-linejoin="miter" d="M 22.726342 0.00162946 L 260.424289 0.00162946 C 272.976374 0.00162946 283.153459 10.173506 283.153459 22.725591 C 283.153459 35.277676 272.976374 45.45476 260.424289 45.45476 L 22.726342 45.45476 C 10.174257 45.45476 0.00238067 35.277676 0.00238067 22.725591 C 0.00238067 10.173506 10.174257 0.00162946 22.726342 0.00162946 Z M 22.726342 0.00162946 " stroke="#737373" stroke-width="4" stroke-opacity="1" stroke-miterlimit="4"/></g></g></g></g></g><g clip-path="url(#fbe89f95a5)"><path fill="#ffffff" d="M 118.21875 42.851562 L 142.75 42.851562 L 142.75 317.273438 L 118.21875 317.273438 Z M 118.21875 42.851562 " fill-opacity="1" fill-rule="nonzero"/></g><g clip-path="url(#3811159ab6)"><path stroke-linecap="butt" transform="matrix(0.75, 0, 0, 0.75, 118.219523, 42.859226)" fill="none" stroke-linejoin="miter" d="M -0.00103085 0.000198686 L 32.702096 0.000198686 L 32.702096 365.864806 L -0.00103085 365.864806 Z M -0.00103085 0.000198686 " stroke="#ffffff" stroke-width="4" stroke-opacity="1" stroke-miterlimit="4"/></g></svg>